<svg xmlns="http://www.w3.org/2000/svg" viewBox="0 0 195.4 221.08"><defs><style>.cls-1,.cls-3{fill:#727070;}.cls-2{fill:#f1b22b;}.cls-3{fill-rule:evenodd;}</style></defs><title>资源 3</title><g id="图层_2" data-name="图层 2"><g id="图层_1-2" data-name="图层 1"><path class="cls-1" d="M16.05,205.4l-.11.44a16,16,0,0,1-1.28,3.55,12.1,12.1,0,0,1-2.1,3,9.76,9.76,0,0,1-2.85,2,8.18,8.18,0,0,1-3.56.76A6.06,6.06,0,0,1,3,214.41a5.75,5.75,0,0,1-2-2,7,7,0,0,1-.91-2.92A10.77,10.77,0,0,1,.3,206a13,13,0,0,1,1.41-3.57A12.71,12.71,0,0,1,4,199.46a11.48,11.48,0,0,1,3.05-2,8.55,8.55,0,0,1,3.56-.74,6.07,6.07,0,0,1,3.65,1.09,5.34,5.34,0,0,1,2,3.12L13,202.53a3.68,3.68,0,0,0-1-2,3,3,0,0,0-2.14-.81,4.48,4.48,0,0,0-2.2.57,6.92,6.92,0,0,0-1.82,1.47,9.62,9.62,0,0,0-1.35,2,9.86,9.86,0,0,0-.8,2.21,7.77,7.77,0,0,0-.22,2.19,5.42,5.42,0,0,0,.43,2A3.33,3.33,0,0,0,5,211.6a3.2,3.2,0,0,0,1.94.55,3.81,3.81,0,0,0,1.52-.32A5.07,5.07,0,0,0,9.91,211,5.88,5.88,0,0,0,11,209.7a5.1,5.1,0,0,0,.7-1.52H8.18l.65-2.79Z"/><path class="cls-1" d="M21.55,203.32l-1.44,6.19c-.07.33-.13.66-.17,1a3.12,3.12,0,0,0,0,.92,1.13,1.13,0,0,0,1.26.94,1.79,1.79,0,0,0,1-.26,2.48,2.48,0,0,0,.69-.68,4,4,0,0,0,.46-.92,8,8,0,0,0,.29-1l1.44-6.19h3.11l-1.57,6.73a6.72,6.72,0,0,1-2.11,3.79,6,6,0,0,1-4,1.27q-2.45,0-3.36-1.29c-.62-.86-.73-2.12-.34-3.8l1.57-6.73Z"/><path class="cls-1" d="M38.47,214.81H35.41l.24-1.05h0a4.69,4.69,0,0,1-3.29,1.41,3.54,3.54,0,0,1-2-.53,3.49,3.49,0,0,1-1.25-1.39,4.9,4.9,0,0,1-.52-2,7.72,7.72,0,0,1,.19-2.27,9,9,0,0,1,.86-2.22A8.83,8.83,0,0,1,31,204.85a7.06,7.06,0,0,1,1.88-1.35A5,5,0,0,1,35.1,203a3.44,3.44,0,0,1,1.58.38,2.63,2.63,0,0,1,1.12,1.07l.27-1.07h3.06Zm-4.77-2.53a2.37,2.37,0,0,0,1.15-.29,4.13,4.13,0,0,0,1-.74,4.52,4.52,0,0,0,.76-1,4.57,4.57,0,0,0,.45-1.15,3.52,3.52,0,0,0,.08-1.16,3,3,0,0,0-.28-1,2,2,0,0,0-.64-.74,1.74,1.74,0,0,0-1-.28,2.47,2.47,0,0,0-1.15.28,3.43,3.43,0,0,0-1,.73,4.8,4.8,0,0,0-.75,1,4.42,4.42,0,0,0-.45,1.15,3.75,3.75,0,0,0-.09,1.15,2.79,2.79,0,0,0,.27,1,2.21,2.21,0,0,0,.64.75A1.72,1.72,0,0,0,33.7,212.28Z"/><path class="cls-1" d="M46.68,204.45h0a3.75,3.75,0,0,1,1.49-1.09,4.44,4.44,0,0,1,1.67-.33,3.54,3.54,0,0,1,1.73.39,2.27,2.27,0,0,1,.93,1,3.84,3.84,0,0,1,.26,1.53,8.61,8.61,0,0,1-.25,1.87l-1.63,7H47.82l1.4-6.05c.09-.35.17-.7.24-1.07a3.33,3.33,0,0,0,.07-1,1.27,1.27,0,0,0-.31-.76,1.25,1.25,0,0,0-.94-.3,1.84,1.84,0,0,0-1.16.36,3.18,3.18,0,0,0-.77.89,5.58,5.58,0,0,0-.48,1.15l-.3,1.13-1.3,5.66H41.16l2.66-11.43h3.1Z"/><path class="cls-1" d="M64,214.19a16.55,16.55,0,0,1-.87,2.63A8.41,8.41,0,0,1,61.8,219a5.89,5.89,0,0,1-2,1.46,6.25,6.25,0,0,1-2.68.53,5.6,5.6,0,0,1-1.89-.32,4.09,4.09,0,0,1-1.53-.93,3.49,3.49,0,0,1-.91-1.49,4.14,4.14,0,0,1-.08-2H56a1.92,1.92,0,0,0,.34,1.46,1.61,1.61,0,0,0,1.34.55,2.59,2.59,0,0,0,1.36-.33A3,3,0,0,0,60,217a4.54,4.54,0,0,0,.53-1.21c.12-.45.24-.89.35-1.32l.17-.74h0a5.28,5.28,0,0,1-1.58,1.1,4.28,4.28,0,0,1-1.77.4,3.69,3.69,0,0,1-2-.51,3.29,3.29,0,0,1-1.22-1.34,5,5,0,0,1-.49-1.92,8,8,0,0,1,.2-2.25,9.26,9.26,0,0,1,.88-2.29,8.92,8.92,0,0,1,1.44-2,6.81,6.81,0,0,1,1.9-1.38,5,5,0,0,1,2.28-.51,2.8,2.8,0,0,1,1.49.4,2.43,2.43,0,0,1,1,1.07h0l.27-1.09h3.11Zm-4.9-1.83a2.44,2.44,0,0,0,1.15-.28,3.85,3.85,0,0,0,1-.73,4.8,4.8,0,0,0,.75-1,4.49,4.49,0,0,0,.45-1.16,3.73,3.73,0,0,0,.09-1.15,2.74,2.74,0,0,0-.27-1,2,2,0,0,0-.64-.75,1.65,1.65,0,0,0-1-.29,2.29,2.29,0,0,0-1.14.28,4,4,0,0,0-1,.75,4.66,4.66,0,0,0-1.19,2.17,3.76,3.76,0,0,0-.1,1.15,2.85,2.85,0,0,0,.27,1,2,2,0,0,0,.64.73A1.77,1.77,0,0,0,59.12,212.36Z"/><path class="cls-1" d="M68.37,221h-3.1l4.06-17.52h3.11Zm4.08-24.26a1.36,1.36,0,0,1,1.18.58,1.62,1.62,0,0,1,.2,1.36,2.8,2.8,0,0,1-.32.76,2.53,2.53,0,0,1-1.22,1,2,2,0,0,1-.75.15,1.35,1.35,0,0,1-1.18-.57,1.67,1.67,0,0,1-.22-1.37,2.54,2.54,0,0,1,.87-1.36A2.16,2.16,0,0,1,72.45,196.74Z"/><path class="cls-1" d="M75.84,214.92H72.73l2.66-11.43H78.5Zm2.67-18.16a1.34,1.34,0,0,1,1.18.58,1.62,1.62,0,0,1,.2,1.36,2.74,2.74,0,0,1-.32.75,2.13,2.13,0,0,1-.53.62,2.47,2.47,0,0,1-.68.41,2.1,2.1,0,0,1-.76.15,1.38,1.38,0,0,1-1.18-.57,1.67,1.67,0,0,1-.22-1.37,2.54,2.54,0,0,1,.87-1.36A2.16,2.16,0,0,1,78.51,196.76Z"/><path class="cls-1" d="M82.35,209.75a4.93,4.93,0,0,0-.15,1.08,3.44,3.44,0,0,0,.13,1,1.43,1.43,0,0,0,.5.72,1.54,1.54,0,0,0,1,.29,2.29,2.29,0,0,0,1.38-.44,4.81,4.81,0,0,0,1.08-1.12l2.76.5a7.12,7.12,0,0,1-2.52,2.64,6.31,6.31,0,0,1-3.27.91,5.08,5.08,0,0,1-2.17-.45,3.59,3.59,0,0,1-1.42-1.25,4.29,4.29,0,0,1-.64-1.9,7.22,7.22,0,0,1,.18-2.4,9.81,9.81,0,0,1,.9-2.43,7.58,7.58,0,0,1,1.44-2,6.62,6.62,0,0,1,2-1.31,6.16,6.16,0,0,1,2.43-.47,4.39,4.39,0,0,1,2.2.5A3.22,3.22,0,0,1,89.39,205a5,5,0,0,1,.48,2,9,9,0,0,1-.25,2.42l-.1.4Zm4.71-2a3.44,3.44,0,0,0,0-.85,2,2,0,0,0-.24-.73,1.49,1.49,0,0,0-.5-.53,1.41,1.41,0,0,0-.76-.2,2,2,0,0,0-.87.2,2.87,2.87,0,0,0-.74.51,3.26,3.26,0,0,0-.59.73,4.61,4.61,0,0,0-.43.86Z"/><path class="cls-1" d="M100.63,214.3a16.53,16.53,0,0,1-.86,2.63,8.17,8.17,0,0,1-1.36,2.16,5.92,5.92,0,0,1-2,1.46,6.33,6.33,0,0,1-2.67.53,5.7,5.7,0,0,1-1.9-.32,4,4,0,0,1-1.52-.93,3.4,3.4,0,0,1-.91-1.49,4.14,4.14,0,0,1-.08-2h3.28a1.92,1.92,0,0,0,.35,1.46,1.6,1.6,0,0,0,1.33.55,2.56,2.56,0,0,0,1.36-.33,2.77,2.77,0,0,0,.88-.89,4.68,4.68,0,0,0,.54-1.2c.12-.45.24-.89.35-1.32l.17-.74h0A5.11,5.11,0,0,1,96,215a4.28,4.28,0,0,1-1.77.4,3.64,3.64,0,0,1-2-.51A3.24,3.24,0,0,1,91,213.5a4.85,4.85,0,0,1-.48-1.92,7.61,7.61,0,0,1,.2-2.25,8.54,8.54,0,0,1,.88-2.29,8.88,8.88,0,0,1,1.43-2,7,7,0,0,1,1.9-1.38,5.09,5.09,0,0,1,2.29-.51,2.85,2.85,0,0,1,1.49.4,2.49,2.49,0,0,1,1,1.07h0l.27-1.09h3.11Zm-4.89-1.83a2.53,2.53,0,0,0,1.14-.28,3.9,3.9,0,0,0,1-.73,4.44,4.44,0,0,0,.74-1,4.49,4.49,0,0,0,.45-1.16,4.07,4.07,0,0,0,.1-1.15,2.57,2.57,0,0,0-.28-1,1.92,1.92,0,0,0-.63-.75,1.75,1.75,0,0,0-1-.3,2.48,2.48,0,0,0-1.15.29,3.93,3.93,0,0,0-1,.75,4.8,4.8,0,0,0-.75,1,4.42,4.42,0,0,0-.45,1.15,3.75,3.75,0,0,0-.09,1.15,2.85,2.85,0,0,0,.27,1,1.89,1.89,0,0,0,.64.73A1.8,1.8,0,0,0,95.74,212.47Z"/><path class="cls-1" d="M110.84,203.22a5,5,0,0,1,2.21.46,3.7,3.7,0,0,1,1.52,1.26,4.4,4.4,0,0,1,.74,1.94,6.7,6.7,0,0,1-.15,2.45,8.06,8.06,0,0,1-1,2.44,7.82,7.82,0,0,1-1.63,1.92,7,7,0,0,1-2.1,1.25,6.65,6.65,0,0,1-2.44.45,5.13,5.13,0,0,1-2.23-.46,3.89,3.89,0,0,1-1.51-1.26,4.27,4.27,0,0,1-.72-1.93,6.89,6.89,0,0,1,.15-2.44,8.69,8.69,0,0,1,1-2.46,7.79,7.79,0,0,1,1.62-1.92,7.25,7.25,0,0,1,2.1-1.26A6.46,6.46,0,0,1,110.84,203.22Zm-.66,2.88a2.4,2.4,0,0,0-1.14.28,3.48,3.48,0,0,0-1,.73,4.86,4.86,0,0,0-.75,1,4.69,4.69,0,0,0-.45,1.17,4.11,4.11,0,0,0-.1,1.15,2.67,2.67,0,0,0,.28,1,1.88,1.88,0,0,0,.64.73,1.72,1.72,0,0,0,1,.28,2.39,2.39,0,0,0,1.14-.27,3.85,3.85,0,0,0,1-.73,4.86,4.86,0,0,0,.75-1,4.42,4.42,0,0,0,.45-1.15,3.77,3.77,0,0,0,.09-1.16,2.46,2.46,0,0,0-.27-1,1.81,1.81,0,0,0-.64-.73A1.72,1.72,0,0,0,110.18,206.1Z"/><path class="cls-1" d="M118.71,211.37a1.48,1.48,0,0,1,1.26.6,1.7,1.7,0,0,1,.24,1.45,2.88,2.88,0,0,1-.35.81,3.07,3.07,0,0,1-.57.67,2.82,2.82,0,0,1-.74.45,2.11,2.11,0,0,1-.8.16,1.45,1.45,0,0,1-1.26-.62,1.78,1.78,0,0,1-.24-1.48,2.63,2.63,0,0,1,.92-1.45A2.35,2.35,0,0,1,118.71,211.37Z"/><path class="cls-1" d="M131.86,207.15a2.87,2.87,0,0,0-.84-.83,2.13,2.13,0,0,0-1.18-.3,2.79,2.79,0,0,0-1.24.29,3.55,3.55,0,0,0-1,.78,5.1,5.1,0,0,0-.8,1.09,4.55,4.55,0,0,0-.48,1.23,3.76,3.76,0,0,0-.1,1.27,2.37,2.37,0,0,0,.34,1,1.94,1.94,0,0,0,.74.71,2.22,2.22,0,0,0,1.13.26,2.92,2.92,0,0,0,1.27-.3,5,5,0,0,0,1.17-.78l-.74,3.14a6.38,6.38,0,0,1-1.43.53,6.31,6.31,0,0,1-1.42.16,4.36,4.36,0,0,1-2.11-.5,3.79,3.79,0,0,1-1.43-1.32,4.59,4.59,0,0,1-.69-1.92,6.22,6.22,0,0,1,.14-2.33,8.39,8.39,0,0,1,1-2.4,8.24,8.24,0,0,1,1.62-1.94,7.38,7.38,0,0,1,2.08-1.29,6.06,6.06,0,0,1,2.38-.48,5.48,5.48,0,0,1,1.27.18,3.2,3.2,0,0,1,1.09.55Z"/><path class="cls-1" d="M140.1,203.3a5.11,5.11,0,0,1,2.22.47,3.84,3.84,0,0,1,1.52,1.26,4.35,4.35,0,0,1,.73,1.93,6.73,6.73,0,0,1-.14,2.46,8.45,8.45,0,0,1-1,2.44,7.58,7.58,0,0,1-1.62,1.92,7.44,7.44,0,0,1-2.1,1.25,6.7,6.7,0,0,1-2.45.45,5.05,5.05,0,0,1-2.22-.46,3.91,3.91,0,0,1-1.51-1.27,4.19,4.19,0,0,1-.72-1.92,6.66,6.66,0,0,1,.15-2.44,8,8,0,0,1,1-2.46,7.81,7.81,0,0,1,1.62-1.93,7.44,7.44,0,0,1,2.1-1.25A6.62,6.62,0,0,1,140.1,203.3Zm-.65,2.89a2.47,2.47,0,0,0-1.15.28,3.63,3.63,0,0,0-1,.73,4.62,4.62,0,0,0-.75,1,4.78,4.78,0,0,0-.45,1.16,3.82,3.82,0,0,0-.09,1.16,2.74,2.74,0,0,0,.27,1,1.92,1.92,0,0,0,.64.74,1.74,1.74,0,0,0,1,.28,2.59,2.59,0,0,0,1.15-.27,3.67,3.67,0,0,0,1-.74,4.66,4.66,0,0,0,1.19-2.17,3.54,3.54,0,0,0,.1-1.16,2.79,2.79,0,0,0-.27-1,2.09,2.09,0,0,0-.64-.74A1.82,1.82,0,0,0,139.45,206.19Z"/><path class="cls-1" d="M150.54,204.73h0a4.21,4.21,0,0,1,1.42-1,3.83,3.83,0,0,1,1.56-.36,2.64,2.64,0,0,1,2.72,1.81,5,5,0,0,1,1.67-1.31,4.26,4.26,0,0,1,1.92-.48,3.07,3.07,0,0,1,1.62.39,2.07,2.07,0,0,1,.82,1,3.88,3.88,0,0,1,.19,1.49,11.77,11.77,0,0,1-.26,1.78l-1.64,7.13h-3.11l1.4-6,.21-1a4.72,4.72,0,0,0,.09-1,1.54,1.54,0,0,0-.23-.84.85.85,0,0,0-.79-.34,1.56,1.56,0,0,0-1.08.39,3.24,3.24,0,0,0-.71.95,6.69,6.69,0,0,0-.45,1.18c-.11.41-.21.76-.27,1.06l-1.3,5.61h-3.11l1.33-5.8c.07-.28.15-.61.24-1a5,5,0,0,0,.14-1.12,1.86,1.86,0,0,0-.23-.91.89.89,0,0,0-.83-.37,1.55,1.55,0,0,0-1.07.39,3.07,3.07,0,0,0-.71.95,6.2,6.2,0,0,0-.44,1.18c-.11.41-.2.76-.26,1.06l-1.3,5.61H145l2.66-11.43h3.11Z"/><path class="cls-1" d="M24.19,161.89l-1.13,6.64-2,1.72-1,6.63,0,0,1.91-1.58-1.68,9.9h7.46l2.88-17.13c1.71-1.45,3-2.56,3.19-2.78.68-.76-.18-1.66-.18-1.66l-1.91-2.17,1.14-6.8c1.63-1.37,2.84-2.42,3-2.63.68-.76-.18-1.66-.18-1.66l-1.79-2,.5-3s.27-.7-1-.7H27.1l-1.76,10.4L23.09,157l-1,6.63,0,0Z"/><path class="cls-1" d="M21.73,146.33a1.49,1.49,0,0,0-1.55-1.71H11.36l-.72,4.2H21.28Z"/><path class="cls-1" d="M78.55,146.27s1.37-1.47-.37-1.47H73.43l-10.17,8.56h6.88Z"/><path class="cls-1" d="M63.59,185.11H71l4-23.73,1.74-1.47s1.37-1.47-.38-1.47H71.69L61.52,167h5.17Z"/><path class="cls-1" d="M58.73,144.62H38.22l-.65,4.2h7.57a1.26,1.26,0,0,1,1.06,1.33L44,163.06H35.32l-.66,4.19h7.18A1.31,1.31,0,0,1,43,168.7a1.3,1.3,0,0,0,0,.28L41,181H32.2l-.66,4.19H53.93l.39-2.49a1.48,1.48,0,0,0-1.55-1.7H48.42L50.5,168.9q0-.08,0-.18l.13-.77a1.36,1.36,0,0,1,1.07-.7h5.33l.39-2.49a1.48,1.48,0,0,0-1.55-1.7H51.44l2.13-12.66v0l.14-.83a1.49,1.49,0,0,1,1.26-.71h4.91l.39-2.49A1.48,1.48,0,0,0,58.73,144.62Z"/><path class="cls-1" d="M55.17,186.7H17.31c-2.34,0-2-2.38-2-2.38l4.92-29.48s.71-2.79-1.59-2.79H10.1l-.71,4.19h1.32c2.29,0,1.64,1.78,1.64,1.78L7.44,186.81H4.22l-.64,4.09H56.33l.39-2.5A1.48,1.48,0,0,0,55.17,186.7Z"/><path class="cls-1" d="M90.87,186.7H88.61l1.08-6.34a1.28,1.28,0,0,1,1.1-.7h3.1l.45-2.49a1.48,1.48,0,0,0-1.55-1.7H90.52l1.36-8a1.33,1.33,0,0,1,1.39-1h2.9L96.6,164a1.49,1.49,0,0,0-1.55-1.71H92.77L94.16,154h0v0l0-.23a1.31,1.31,0,0,1,1.07-1h3.24l.39-2.49a1.48,1.48,0,0,0-1.55-1.7H95.09l.63-3.71H88.25l-.63,3.71H81.29l-.72,4.19h4.87a1.31,1.31,0,0,1,1.19,1.45,1.26,1.26,0,0,0,0,.27l-1.31,7.77H79l-.71,4.2h5a1.37,1.37,0,0,1,1.14,1.33h0l-1.3,7.7h-6.4L76,179.66h5a1.31,1.31,0,0,1,1.21,1l-1,6.07H63.35l-.7,4.2H92l.39-2.5A1.48,1.48,0,0,0,90.87,186.7Z"/><path class="cls-1" d="M116.85,146.33a1.49,1.49,0,0,0-1.55-1.71H103.57l-.72,4.2h13.61Z"/><path class="cls-1" d="M113.86,164.13l.39-2.49a1.49,1.49,0,0,0-1.55-1.71H101l-.72,4.2h2.13a1.34,1.34,0,0,1,1.19,1.14L99.9,186.73H94.24l-.61,4.17h13l4.51-26.77Z"/><path class="cls-1" d="M130.17,149.71h8.31A1.3,1.3,0,0,1,139.6,151l-4.34,25.35,6.51,5.51,5.45-32.12h.07l.39-2.5a1.48,1.48,0,0,0-1.55-1.7H123.48l-.15.9h0l-6.41,37.29,8.71-7.4Z"/><polygon class="cls-1" points="145.45 170.78 143.9 179.66 161.21 179.66 163.71 165.03 157.13 170.57 156.18 175.82 152.02 175.82 154.1 163.5 145.45 170.78"/><path class="cls-1" d="M173.65,146.27H157.06l.33-2H150l-4,23.6,8.72-7.38,1.67-9.88h9.35a1.35,1.35,0,0,1,1.25,1.46.93.93,0,0,0,0,.43l-5.8,34.23H144.57l-14.18-11.9,2-2.49s2.7-3.4,2.89-4.18a2.58,2.58,0,0,0-2.52-3.41,4.56,4.56,0,0,0-4.17,3.4c-.18.77.88,4.19.88,4.19l.79,2.41-15.09,12.68s-1.79,1.67-4.06,3.43h8.78l.15-.14,10.3-8.64,10.47,8.79h27.11L175.18,148A1.46,1.46,0,0,0,173.65,146.27Zm-42.81,21.92a1.51,1.51,0,0,1,1.38-1.12.85.85,0,0,1,.83,1.13,1.5,1.5,0,0,1-1.37,1.12A.85.85,0,0,1,130.84,168.19Z"/><path class="cls-2" d="M138,11.55A60.76,60.76,0,1,0,97.22,121.32h.12l.9.07c1.92.25,6.33,1.34,11.46,6.15l1.64,1.64,16-16A25.39,25.39,0,1,0,94.44,74.52a5.51,5.51,0,0,0-.43.41l-.28.26,0,0a5.28,5.28,0,0,0,7.44,7.44l0,0a14.82,14.82,0,1,1,0,21.36l0,0A5.28,5.28,0,0,0,92,108.45c.09.81.19,3.91-3.83,2.6a45.84,45.84,0,1,1,44.7-78.53c5.62,3.41,6.66-2.49,6.66-2.49l1.62-10.92A8,8,0,0,0,138,11.55Z"/><path class="cls-3" d="M188.48,135a7.2,7.2,0,0,1,3.41.89,6.41,6.41,0,0,1,2.59,2.57,7.12,7.12,0,0,1,.92,3.47,7,7,0,0,1-.91,3.44,6.4,6.4,0,0,1-2.56,2.57,6.93,6.93,0,0,1-6.9,0,6.42,6.42,0,0,1-2.57-2.57,6.95,6.95,0,0,1,0-6.91,6.35,6.35,0,0,1,2.59-2.57,7.2,7.2,0,0,1,3.41-.89Zm0,1.15a6,6,0,0,0-2.84.74,5.39,5.39,0,0,0-2.17,2.14,5.87,5.87,0,0,0-.78,2.9,5.8,5.8,0,0,0,.77,2.87,5.44,5.44,0,0,0,2.14,2.14,5.87,5.87,0,0,0,2.88.77,5.8,5.8,0,0,0,2.87-.77,5.37,5.37,0,0,0,2.14-2.14,5.79,5.79,0,0,0,.76-2.87,5.86,5.86,0,0,0-.77-2.9,5.42,5.42,0,0,0-2.16-2.14,6,6,0,0,0-2.84-.74Zm-3,9.61v-7.45H188a6.2,6.2,0,0,1,1.9.2,1.95,1.95,0,0,1,1.29,1.81,2,2,0,0,1-.59,1.43,2.3,2.3,0,0,1-1.54.68,2.12,2.12,0,0,1,.63.39,8.64,8.64,0,0,1,1.1,1.48l.91,1.46h-1.47l-.66-1.18a5.94,5.94,0,0,0-1.26-1.73,1.55,1.55,0,0,0-1-.26h-.71v3.17Zm1.2-4.19h1.46a2.33,2.33,0,0,0,1.43-.32,1,1,0,0,0,.38-.83,1,1,0,0,0-.18-.59,1.13,1.13,0,0,0-.51-.39,4,4,0,0,0-1.21-.13h-1.37v2.26Z"/></g></g></svg>