<svg xmlns="http://www.w3.org/2000/svg" viewBox="0 0 261.82 86.12"><defs><style>.cls-1,.cls-3{fill:#727070;}.cls-2{fill:#f1b22b;}.cls-3{fill-rule:evenodd;}</style></defs><title>资源 2</title><g id="图层_2" data-name="图层 2"><g id="图层_1-2" data-name="图层 1"><path class="cls-1" d="M82.46,70.44l-.1.45a16.92,16.92,0,0,1-1.29,3.55,12,12,0,0,1-2.1,3,9.76,9.76,0,0,1-2.85,2,8.18,8.18,0,0,1-3.56.76,6.09,6.09,0,0,1-3.14-.77,5.64,5.64,0,0,1-2-2,7,7,0,0,1-.92-2.92A10.69,10.69,0,0,1,66.71,71a12.79,12.79,0,0,1,1.41-3.57,12.6,12.6,0,0,1,2.33-3,10.91,10.91,0,0,1,3-2,8.68,8.68,0,0,1,3.56-.75,6,6,0,0,1,3.64,1.09,5.29,5.29,0,0,1,2,3.12l-3.26,1.62a3.63,3.63,0,0,0-1-2,2.91,2.91,0,0,0-2.13-.81,4.32,4.32,0,0,0-2.2.56,6.77,6.77,0,0,0-1.82,1.47,9.44,9.44,0,0,0-1.35,2A10,10,0,0,0,70.08,71a8.15,8.15,0,0,0-.22,2.19,5.63,5.63,0,0,0,.43,2,3.37,3.37,0,0,0,1.15,1.43,3.3,3.3,0,0,0,1.94.56,3.84,3.84,0,0,0,1.53-.33A5.17,5.17,0,0,0,76.32,76a5.92,5.92,0,0,0,1.13-1.26,5.43,5.43,0,0,0,.7-1.51H74.59l.65-2.8Z"/><path class="cls-1" d="M88,68.36l-1.44,6.2c-.07.32-.12.66-.17,1a3.09,3.09,0,0,0,0,.92,1.12,1.12,0,0,0,.37.67,1.24,1.24,0,0,0,.88.27,1.71,1.71,0,0,0,1-.26,2.32,2.32,0,0,0,.69-.67,3.77,3.77,0,0,0,.46-.92,7,7,0,0,0,.3-1l1.43-6.19h3.11l-1.57,6.73A6.71,6.71,0,0,1,91,78.9a5.93,5.93,0,0,1-4,1.27q-2.45,0-3.36-1.29a4.69,4.69,0,0,1-.34-3.8l1.57-6.72Z"/><path class="cls-1" d="M104.88,79.85h-3.06l.24-1h0a4.86,4.86,0,0,1-1.55,1,4.5,4.5,0,0,1-1.74.37,3.77,3.77,0,0,1-2-.53,3.56,3.56,0,0,1-1.25-1.39,5.16,5.16,0,0,1-.52-2,7.68,7.68,0,0,1,.2-2.27A8.85,8.85,0,0,1,96,71.82a8.24,8.24,0,0,1,1.42-1.92,6.69,6.69,0,0,1,1.87-1.36,5,5,0,0,1,2.22-.51,3.44,3.44,0,0,1,1.58.38,2.58,2.58,0,0,1,1.12,1.07l.27-1.07h3.06Zm-4.77-2.53a2.34,2.34,0,0,0,1.15-.29,4.13,4.13,0,0,0,1-.74,4.52,4.52,0,0,0,.76-1,4.42,4.42,0,0,0,.45-1.15,3.5,3.5,0,0,0,.08-1.16,2.75,2.75,0,0,0-.28-1,2,2,0,0,0-.64-.74,1.79,1.79,0,0,0-1-.28,2.4,2.4,0,0,0-1.14.28,3.48,3.48,0,0,0-1,.73,4.2,4.2,0,0,0-.75,1,4.42,4.42,0,0,0-.45,1.15,4.14,4.14,0,0,0-.1,1.16,2.57,2.57,0,0,0,.28,1,2,2,0,0,0,.64.75A1.69,1.69,0,0,0,100.11,77.32Z"/><path class="cls-1" d="M113.1,69.49h0a3.75,3.75,0,0,1,1.49-1.09,4.27,4.27,0,0,1,1.67-.32,3.31,3.31,0,0,1,1.73.39,2.18,2.18,0,0,1,.93,1,3.45,3.45,0,0,1,.26,1.52,8.77,8.77,0,0,1-.25,1.88l-1.63,7h-3.11l1.4-6c.09-.34.17-.7.25-1.07a4.07,4.07,0,0,0,.07-1,1.28,1.28,0,0,0-.32-.75,1.2,1.2,0,0,0-.94-.31,1.82,1.82,0,0,0-1.15.36,3,3,0,0,0-.77.89,5.11,5.11,0,0,0-.49,1.15l-.3,1.13-1.3,5.66h-3.11l2.66-11.43h3.11Z"/><path class="cls-1" d="M130.43,79.23a15.3,15.3,0,0,1-.87,2.63A7.9,7.9,0,0,1,128.21,84a5.89,5.89,0,0,1-2,1.46,6.19,6.19,0,0,1-2.68.53,5.68,5.68,0,0,1-1.89-.32,4.2,4.2,0,0,1-1.53-.92,3.7,3.7,0,0,1-.91-1.5,4.22,4.22,0,0,1-.08-2h3.29a1.89,1.89,0,0,0,.35,1.45,1.59,1.59,0,0,0,1.33.55,2.47,2.47,0,0,0,1.36-.33,2.74,2.74,0,0,0,.88-.88,4.54,4.54,0,0,0,.53-1.21c.13-.44.24-.88.35-1.32l.18-.74h-.05a5.16,5.16,0,0,1-1.58,1.1,4.24,4.24,0,0,1-1.76.4,3.73,3.73,0,0,1-2-.5,3.33,3.33,0,0,1-1.23-1.35,5,5,0,0,1-.49-1.92,8,8,0,0,1,.21-2.25A9,9,0,0,1,121.4,72a8.63,8.63,0,0,1,1.44-2,6.56,6.56,0,0,1,1.9-1.38,5.08,5.08,0,0,1,2.28-.52,2.8,2.8,0,0,1,1.49.4,2.38,2.38,0,0,1,1,1.07h.05l.26-1.09h3.11Zm-4.89-1.83a2.4,2.4,0,0,0,1.14-.28,3.48,3.48,0,0,0,1-.73,4.8,4.8,0,0,0,.75-1,4.42,4.42,0,0,0,.45-1.15,4.18,4.18,0,0,0,.1-1.16,2.57,2.57,0,0,0-.28-1,2,2,0,0,0-.64-.75,1.72,1.72,0,0,0-1-.29,2.43,2.43,0,0,0-1.14.28,4.19,4.19,0,0,0-1,.75,4.8,4.8,0,0,0-.75,1,4.42,4.42,0,0,0-.45,1.15,3.75,3.75,0,0,0-.09,1.15,2.61,2.61,0,0,0,.27,1,1.91,1.91,0,0,0,.64.74A1.79,1.79,0,0,0,125.54,77.4Z"/><path class="cls-1" d="M134.79,86h-3.11l4.06-17.52h3.11Zm4.08-24.25a1.35,1.35,0,0,1,1.17.57,1.59,1.59,0,0,1,.2,1.36,2.67,2.67,0,0,1-.32.76,2.37,2.37,0,0,1-.52.61,2.42,2.42,0,0,1-.69.41,2.06,2.06,0,0,1-.76.15,1.34,1.34,0,0,1-1.17-.56,1.69,1.69,0,0,1-.23-1.38,2.6,2.6,0,0,1,.87-1.36A2.12,2.12,0,0,1,138.87,61.79Z"/><path class="cls-1" d="M142.25,80h-3.1l2.66-11.42h3.1Zm2.68-18.16a1.37,1.37,0,0,1,1.17.58,1.58,1.58,0,0,1,.2,1.36,2.65,2.65,0,0,1-.31.76,2.62,2.62,0,0,1-.53.61,2.68,2.68,0,0,1-.69.41,2,2,0,0,1-.76.15,1.33,1.33,0,0,1-1.17-.57,1.63,1.63,0,0,1-.22-1.37,2.59,2.59,0,0,1,.86-1.36A2.2,2.2,0,0,1,144.93,61.8Z"/><path class="cls-1" d="M148.76,74.79a4.45,4.45,0,0,0-.14,1.08,2.8,2.8,0,0,0,.13,1,1.48,1.48,0,0,0,.49.73,1.56,1.56,0,0,0,1,.28,2.29,2.29,0,0,0,1.38-.44,4.81,4.81,0,0,0,1.08-1.12l2.75.5a7,7,0,0,1-2.52,2.64,6.31,6.31,0,0,1-3.27.91,4.73,4.73,0,0,1-2.16-.45A3.45,3.45,0,0,1,146,78.66a4.3,4.3,0,0,1-.65-1.9,7.22,7.22,0,0,1,.18-2.4,10.67,10.67,0,0,1,.9-2.43,7.79,7.79,0,0,1,1.45-2,6.62,6.62,0,0,1,2-1.31,6.14,6.14,0,0,1,2.42-.47,4.54,4.54,0,0,1,2.21.5A3.2,3.2,0,0,1,155.8,70a4.66,4.66,0,0,1,.48,2,8.63,8.63,0,0,1-.25,2.42l-.1.4Zm4.72-2a4.76,4.76,0,0,0,0-.85,2.15,2.15,0,0,0-.24-.74,1.41,1.41,0,0,0-.51-.52,1.33,1.33,0,0,0-.76-.2,1.85,1.85,0,0,0-.87.19,3.06,3.06,0,0,0-.74.51,3.56,3.56,0,0,0-.59.73,6.27,6.27,0,0,0-.43.86Z"/><path class="cls-1" d="M167.05,79.34a17.25,17.25,0,0,1-.87,2.63,8.41,8.41,0,0,1-1.35,2.16,5.83,5.83,0,0,1-2,1.46,6.18,6.18,0,0,1-2.67.53,5.7,5.7,0,0,1-1.9-.32,4.24,4.24,0,0,1-1.52-.92,3.59,3.59,0,0,1-.91-1.5,4.1,4.1,0,0,1-.08-2h3.29a1.9,1.9,0,0,0,.34,1.46,1.61,1.61,0,0,0,1.34.55,2.59,2.59,0,0,0,1.36-.33,3,3,0,0,0,.88-.88,4.88,4.88,0,0,0,.53-1.21c.12-.44.24-.88.35-1.32l.17-.74h0a5.28,5.28,0,0,1-1.58,1.1,4.28,4.28,0,0,1-1.77.4,3.69,3.69,0,0,1-2-.51,3.29,3.29,0,0,1-1.22-1.34,5,5,0,0,1-.49-1.92,8,8,0,0,1,.2-2.25,9.42,9.42,0,0,1,.88-2.29,8.63,8.63,0,0,1,1.44-2,6.43,6.43,0,0,1,1.9-1.38,5.05,5.05,0,0,1,2.28-.52,2.82,2.82,0,0,1,1.49.4,2.49,2.49,0,0,1,1,1.07h0l.27-1.09h3.11Zm-4.9-1.83a2.44,2.44,0,0,0,1.15-.28,3.63,3.63,0,0,0,1-.73,4.8,4.8,0,0,0,.75-1,4.57,4.57,0,0,0,.45-1.15,3.82,3.82,0,0,0,.09-1.16,2.74,2.74,0,0,0-.27-1,2.1,2.1,0,0,0-.64-.75,1.72,1.72,0,0,0-1-.29,2.4,2.4,0,0,0-1.14.28,4,4,0,0,0-1,.75,4.66,4.66,0,0,0-1.19,2.17,3.48,3.48,0,0,0-.1,1.15,2.79,2.79,0,0,0,.27,1,2,2,0,0,0,.64.73A1.74,1.74,0,0,0,162.15,77.51Z"/><path class="cls-1" d="M177.25,68.26a5.15,5.15,0,0,1,2.22.46A3.92,3.92,0,0,1,181,70a4.39,4.39,0,0,1,.73,1.94,6.69,6.69,0,0,1-.14,2.45,8.52,8.52,0,0,1-1,2.45A7.71,7.71,0,0,1,179,78.73a7.25,7.25,0,0,1-2.1,1.26,6.49,6.49,0,0,1-2.45.44,5,5,0,0,1-2.23-.46,3.78,3.78,0,0,1-1.5-1.26,4.4,4.4,0,0,1-.73-1.92,6.72,6.72,0,0,1,.16-2.45,8.09,8.09,0,0,1,1-2.45A7.46,7.46,0,0,1,172.73,70a7.22,7.22,0,0,1,2.1-1.25A6.62,6.62,0,0,1,177.25,68.26Zm-.65,2.89a2.43,2.43,0,0,0-1.15.27,3.85,3.85,0,0,0-1,.73,4.68,4.68,0,0,0-.75,1,4.49,4.49,0,0,0-.45,1.16,3.75,3.75,0,0,0-.09,1.15,2.85,2.85,0,0,0,.27,1,1.89,1.89,0,0,0,.64.73,1.72,1.72,0,0,0,1,.29,2.4,2.4,0,0,0,1.14-.28,3.69,3.69,0,0,0,1-.73,4.2,4.2,0,0,0,.75-1,4.49,4.49,0,0,0,.45-1.16,4.11,4.11,0,0,0,.1-1.16,2.85,2.85,0,0,0-.27-1,2,2,0,0,0-.64-.73A1.74,1.74,0,0,0,176.6,71.15Z"/><path class="cls-1" d="M185.12,76.41a1.46,1.46,0,0,1,1.26.6,1.69,1.69,0,0,1,.24,1.46,2.92,2.92,0,0,1-.34.8,3.41,3.41,0,0,1-.58.67,2.26,2.26,0,0,1-.74.45,1.88,1.88,0,0,1-.8.16,1.43,1.43,0,0,1-1.26-.62,1.74,1.74,0,0,1-.23-1.48,2.65,2.65,0,0,1,.91-1.45A2.4,2.4,0,0,1,185.12,76.41Z"/><path class="cls-1" d="M198.28,72.19a3,3,0,0,0-.85-.83,2.21,2.21,0,0,0-1.17-.3,2.8,2.8,0,0,0-1.25.29,3.89,3.89,0,0,0-1,.78,5.89,5.89,0,0,0-.8,1.09,4.64,4.64,0,0,0-.47,1.23,3.77,3.77,0,0,0-.11,1.27,2.65,2.65,0,0,0,.34,1,2,2,0,0,0,.74.72,2.34,2.34,0,0,0,1.14.25,2.7,2.7,0,0,0,1.26-.29,5.29,5.29,0,0,0,1.18-.79l-.75,3.14a5.78,5.78,0,0,1-1.43.53,6.25,6.25,0,0,1-1.42.16,4.4,4.4,0,0,1-2.1-.49,3.85,3.85,0,0,1-1.44-1.33,4.89,4.89,0,0,1-.69-1.92,6.24,6.24,0,0,1,.15-2.33,8.2,8.2,0,0,1,1-2.39,8,8,0,0,1,1.62-1.94,7.56,7.56,0,0,1,2.08-1.3,5.93,5.93,0,0,1,2.39-.47,4.46,4.46,0,0,1,1.26.18,3.08,3.08,0,0,1,1.1.55Z"/><path class="cls-1" d="M206.52,68.35a5,5,0,0,1,2.21.46,3.7,3.7,0,0,1,1.52,1.26A4.4,4.4,0,0,1,211,72a6.7,6.7,0,0,1-.15,2.45,8.06,8.06,0,0,1-1,2.44,7.82,7.82,0,0,1-1.63,1.92,7.09,7.09,0,0,1-2.1,1.25,6.65,6.65,0,0,1-2.44.45,5.13,5.13,0,0,1-2.23-.46A4,4,0,0,1,200,78.8a4.27,4.27,0,0,1-.72-1.93,6.89,6.89,0,0,1,.15-2.44,8.69,8.69,0,0,1,1-2.46A7.79,7.79,0,0,1,202,70.05a7.25,7.25,0,0,1,2.1-1.26A6.46,6.46,0,0,1,206.52,68.35Zm-.66,2.88a2.4,2.4,0,0,0-1.14.28,3.48,3.48,0,0,0-1,.73,4.86,4.86,0,0,0-.75,1,4.69,4.69,0,0,0-.45,1.17,3.76,3.76,0,0,0-.1,1.15,2.67,2.67,0,0,0,.28,1,1.88,1.88,0,0,0,.64.73,1.72,1.72,0,0,0,1,.28,2.39,2.39,0,0,0,1.14-.27,3.85,3.85,0,0,0,1-.73,5.13,5.13,0,0,0,.75-1,4.42,4.42,0,0,0,.45-1.15,3.79,3.79,0,0,0,.09-1.16,2.79,2.79,0,0,0-.27-1,1.81,1.81,0,0,0-.64-.73A1.72,1.72,0,0,0,205.86,71.23Z"/><path class="cls-1" d="M217,69.77H217a4.11,4.11,0,0,1,1.41-1,3.82,3.82,0,0,1,1.56-.35,2.61,2.61,0,0,1,2.72,1.8,5.14,5.14,0,0,1,1.67-1.31,4.12,4.12,0,0,1,1.92-.47,2.94,2.94,0,0,1,1.62.38,2.07,2.07,0,0,1,.82,1,3.7,3.7,0,0,1,.19,1.49,10.63,10.63,0,0,1-.26,1.78L227,80.22H223.9l1.4-6q.1-.42.21-1a4.9,4.9,0,0,0,.1-1,1.57,1.57,0,0,0-.24-.84.84.84,0,0,0-.79-.34,1.52,1.52,0,0,0-1.07.39,3.41,3.41,0,0,0-.72.95,8,8,0,0,0-.45,1.18c-.11.41-.2.76-.27,1.06l-1.3,5.61h-3.11l1.34-5.8c.06-.28.14-.61.23-1a5,5,0,0,0,.14-1.12,1.69,1.69,0,0,0-.23-.9.88.88,0,0,0-.82-.38,1.56,1.56,0,0,0-1.08.39,3.47,3.47,0,0,0-.71,1,6.56,6.56,0,0,0-.44,1.17l-.26,1.06-1.3,5.61h-3.11l2.66-11.43h3.11Z"/><path class="cls-1" d="M90.6,26.93l-1.12,6.64-2,1.73-1,6.62,0,0,1.92-1.59-1.68,9.9h7.46L97,33.13c1.71-1.45,3-2.56,3.2-2.78.67-.76-.18-1.66-.18-1.66l-1.91-2.16,1.14-6.8c1.62-1.38,2.83-2.42,3-2.64.67-.76-.19-1.66-.19-1.66l-1.79-2,.5-3s.27-.7-1-.7H93.52l-1.77,10.4L89.51,22l-1,6.62,0,0Z"/><path class="cls-1" d="M88.14,11.37a1.49,1.49,0,0,0-1.55-1.71H77.77l-.71,4.2H87.7Z"/><path class="cls-1" d="M145,11.31s1.37-1.47-.38-1.47h-4.75L129.67,18.4h6.88Z"/><path class="cls-1" d="M130,50.16h7.43l4-23.74L143.23,25s1.37-1.47-.38-1.47H138.1L127.93,32h5.17Z"/><path class="cls-1" d="M125.14,9.66h-20.5l-.66,4.2h7.58a1.27,1.27,0,0,1,1.06,1.33L110.41,28.1h-8.68l-.65,4.19h7.17a1.31,1.31,0,0,1,1.18,1.45,1.3,1.3,0,0,0,0,.28l-2,12H98.62L98,50.26h22.38l.39-2.49a1.48,1.48,0,0,0-1.55-1.7h-4.34l2.07-12.13a.48.48,0,0,0,0-.18l.14-.77a1.38,1.38,0,0,1,1.06-.7h5.33l.39-2.49a1.48,1.48,0,0,0-1.55-1.7h-4.46L120,15.44v0l.14-.83a1.49,1.49,0,0,1,1.25-.71h4.92l.39-2.49A1.49,1.49,0,0,0,125.14,9.66Z"/><path class="cls-1" d="M121.58,51.74H83.72c-2.34,0-2-2.38-2-2.38l4.92-29.48s.71-2.79-1.59-2.79H76.51l-.71,4.2h1.32c2.29,0,1.64,1.77,1.64,1.77l-4.9,28.8H70.63L70,55.94h52.75l.39-2.49A1.49,1.49,0,0,0,121.58,51.74Z"/><path class="cls-1" d="M157.29,51.74H155l1.07-6.33a1.29,1.29,0,0,1,1.1-.71h3.11l.44-2.49a1.48,1.48,0,0,0-1.55-1.7h-2.27l1.36-8a1.32,1.32,0,0,1,1.39-1h2.9L163,29a1.48,1.48,0,0,0-1.55-1.7h-2.29l1.4-8.22h0v0l0-.22a1.3,1.3,0,0,1,1.07-1h3.23l.39-2.49a1.47,1.47,0,0,0-1.54-1.7H161.5l.63-3.7h-7.47L154,13.6H147.7L147,17.79h4.87A1.31,1.31,0,0,1,153,19.24a1.21,1.21,0,0,0,0,.27l-1.31,7.78h-6.35l-.71,4.19h5a1.36,1.36,0,0,1,1.13,1.33h0l-1.3,7.69h-6.4l-.71,4.19h5a1.3,1.3,0,0,1,1.2,1l-1,6.07H129.76l-.7,4.2h29.39l.39-2.49A1.49,1.49,0,0,0,157.29,51.74Z"/><path class="cls-1" d="M183.26,11.37a1.49,1.49,0,0,0-1.55-1.71H170l-.73,4.2h13.61Z"/><path class="cls-1" d="M180.27,29.17l.39-2.49a1.47,1.47,0,0,0-1.55-1.7H167.38l-.73,4.19h2.13A1.32,1.32,0,0,1,170,30.32l-3.65,21.45h-5.67l-.6,4.17h13l4.5-26.77Z"/><path class="cls-1" d="M196.58,14.75h8.31A1.28,1.28,0,0,1,206,16l-4.34,25.35,6.51,5.51,5.45-32.12h.07l.39-2.49a1.48,1.48,0,0,0-1.54-1.71H189.9l-.15.9h0l-6.41,37.29,8.72-7.4Z"/><polygon class="cls-1" points="211.86 35.83 210.31 44.7 227.63 44.7 230.13 30.08 223.55 35.61 222.6 40.86 218.44 40.86 220.52 28.55 211.86 35.83"/><path class="cls-1" d="M240.06,11.31H223.47l.33-2h-7.42l-4,23.6,8.73-7.38,1.66-9.87h9.35a1.33,1.33,0,0,1,1.25,1.45,1.09,1.09,0,0,0,0,.43l-5.8,34.23H211l-14.17-11.9,2-2.49s2.71-3.39,2.89-4.17a2.58,2.58,0,0,0-2.52-3.42,4.55,4.55,0,0,0-4.16,3.4c-.19.78.88,4.19.88,4.19l.78,2.41L181.59,52.51s-1.79,1.67-4.05,3.43h8.77l.15-.14,10.3-8.64L207.24,56h27.1l7.26-42.88A1.47,1.47,0,0,0,240.06,11.31Zm-42.8,21.93a1.5,1.5,0,0,1,1.37-1.13.86.86,0,0,1,.84,1.13,1.51,1.51,0,0,1-1.38,1.12A.84.84,0,0,1,197.26,33.24Z"/><path class="cls-2" d="M62.18,10.24a38.7,38.7,0,0,0-9.61-5.1,39.2,39.2,0,1,0-16.7,75.91h.07l.59,0c1.23.15,4.08.86,7.39,4l1,1.06,10.3-10.3a16.38,16.38,0,1,0-21.19-25l-.29.26-.18.17h0a3.41,3.41,0,0,0,4.8,4.8h0a9.56,9.56,0,1,1,0,13.79h0a3.41,3.41,0,0,0-6,2.26,3.68,3.68,0,0,0,0,.58c.06.52.12,2.52-2.47,1.67A29.57,29.57,0,1,1,58.88,23.76c3.63,2.2,4.3-1.61,4.3-1.61l1-7A5.13,5.13,0,0,0,62.18,10.24Z"/><path class="cls-3" d="M254.89,0a7.17,7.17,0,0,1,3.41.89,6.35,6.35,0,0,1,2.59,2.57,6.93,6.93,0,0,1,0,6.92,6.31,6.31,0,0,1-2.56,2.56,6.93,6.93,0,0,1-6.9,0,6.37,6.37,0,0,1-2.56-2.56A6.92,6.92,0,0,1,248,6.93a7,7,0,0,1,.93-3.47,6.37,6.37,0,0,1,2.6-2.57,7.13,7.13,0,0,1,3.4-.89Zm0,1.15a5.89,5.89,0,0,0-2.84.75A5.4,5.4,0,0,0,249.89,4a5.87,5.87,0,0,0-.78,2.9,5.79,5.79,0,0,0,.76,2.87A5.46,5.46,0,0,0,252,11.94a5.75,5.75,0,0,0,5.75,0,5.37,5.37,0,0,0,2.14-2.14,5.79,5.79,0,0,0,0-5.77,5.28,5.28,0,0,0-2.16-2.13,5.89,5.89,0,0,0-2.84-.75Zm-3,9.61V3.31h2.56a6.32,6.32,0,0,1,1.91.2,1.85,1.85,0,0,1,.93.72,1.89,1.89,0,0,1,.35,1.1A2,2,0,0,1,257,6.75a2.34,2.34,0,0,1-1.55.68,2,2,0,0,1,.63.39,9.13,9.13,0,0,1,1.11,1.48l.91,1.46h-1.47L256,9.59a6.06,6.06,0,0,0-1.25-1.74,1.58,1.58,0,0,0-1-.25h-.7v3.16Zm1.21-4.19h1.46a2.31,2.31,0,0,0,1.42-.32,1,1,0,0,0,.39-.82,1.07,1.07,0,0,0-.19-.6,1,1,0,0,0-.51-.38,3.67,3.67,0,0,0-1.21-.13h-1.36V6.57Z"/></g></g></svg>