<?xml version="1.0" encoding="UTF-8"?>
<svg width="20px" height="20px" viewBox="0 0 20 20" version="1.1" xmlns="http://www.w3.org/2000/svg" xmlns:xlink="http://www.w3.org/1999/xlink">
    <!-- Generator: Sketch 52.5 (67469) - http://www.bohemiancoding.com/sketch -->
    <title>Shape</title>
    <desc>Created with Sketch.</desc>
    <g id="Page-1" stroke="none" stroke-width="1" fill="none" fill-rule="evenodd">
        <g id="团队建设" transform="translate(-560.000000, -993.000000)" fill="#A6A5A5" fill-rule="nonzero" stroke="#A6A5A5" stroke-width="0.5">
            <g id="Group-2" transform="translate(120.000000, 676.000000)">
                <g id="Group-Copy" transform="translate(410.000000, 0.000000)">
                    <g id="时间" transform="translate(30.000000, 317.000000)">
                        <path d="M9.99933502,19.7421712 C4.63599202,19.7421712 0.289607437,15.3958092 0.289607437,10.0338231 C0.289607437,4.67115859 4.6359694,0.323417099 9.99933502,0.323417099 C15.3613211,0.323417099 19.7090626,4.67113597 19.7090626,10.0338231 C19.7090626,15.3958092 15.3620222,19.7421712 9.99933502,19.7421712 Z M9.99933502,1.42346361 C5.24522176,1.42346361 1.3903324,5.27835296 1.3903324,10.0331447 C1.3903324,14.7865795 5.24522176,18.6421473 9.99933502,18.6421473 C14.7541267,18.6421473 18.6083376,14.7865795 18.6083376,10.0331447 C18.6083376,5.27835296 14.7541267,1.42346361 9.99933502,1.42346361 Z M5.42220798,13.071853 C5.2881001,12.7845953 5.41062902,12.4428802 5.6972083,12.3087723 L9.94010592,10.8908472 L9.94010592,4.90395902 C9.94010592,4.58537929 10.1960643,4.32944355 10.5132645,4.32944355 C10.8291078,4.32944355 11.0871015,4.58675882 11.0871015,4.90395902 L11.0871015,11.206012 C11.0871015,11.2284689 11.0748441,11.2488903 11.0728087,11.2713698 C11.086423,11.4973631 10.9638941,11.7192856 10.7460649,11.8220715 L6.18323066,13.3468759 C5.89732983,13.4830192 5.55493634,13.3577764 5.42218537,13.0718756 L5.42220798,13.071853 Z" id="Shape"></path>
                    </g>
                </g>
            </g>
        </g>
    </g>
</svg>