<?xml version="1.0" encoding="UTF-8"?>
<svg width="17px" height="15px" viewBox="0 0 17 15" version="1.1" xmlns="http://www.w3.org/2000/svg" xmlns:xlink="http://www.w3.org/1999/xlink">
    <!-- Generator: Sketch 52.5 (67469) - http://www.bohemiancoding.com/sketch -->
    <title>照片</title>
    <desc>Created with Sketch.</desc>
    <g id="Page-1" stroke="none" stroke-width="1" fill="none" fill-rule="evenodd">
        <g id="集团概况" transform="translate(-780.000000, -1102.000000)" fill="#6C6E6F" fill-rule="nonzero">
            <g id="Group" transform="translate(729.000000, 695.000000)">
                <g id="照片" transform="translate(51.000000, 407.000000)">
                    <path d="M3.12139096e-15,1.30606295 L3.12139096e-15,13.0572503 C3.12139096e-15,14.1538025 0.216269157,14.3633133 1.2739605,14.3633133 L15.7065475,14.3633133 C16.7541012,14.3633133 16.980508,14.1639402 16.980508,13.0572503 L16.980508,1.30606295 C16.980508,0.234854787 16.7811349,2.40106997e-16 15.7065475,2.40106997e-16 L1.2739605,0 C0.221337965,0.00168960279 0,0.187545909 0,1.30606295 Z M14.9800183,11.3169595 L2.00893771,11.3169595 C3.42651445,9.19819757 5.94740181,5.66354854 6.58776126,5.66354854 C7.20784549,5.66354854 9.31309056,8.51897725 10.2643369,9.52429091 C10.2643369,9.52429091 11.4876093,7.84820494 12.1279688,7.84820494 C12.7818451,7.84820494 14.9580535,11.3000634 14.9800183,11.3169595 Z M11.1682744,3.91818886 C11.1682744,3.0311474 11.86777,2.31306621 12.7345362,2.31306621 C13.6013024,2.31306621 14.300798,3.0311474 14.300798,3.91818886 C14.300798,4.80523032 13.6013024,5.52331151 12.7345362,5.52331151 C11.8694596,5.52331151 11.1682744,4.80523032 11.1682744,3.91818886 Z" id="Shape"></path>
                </g>
            </g>
        </g>
    </g>
</svg>